<mxfile host="app.diagrams.net" agent="Mozilla/5.0 (Macintosh; Intel Mac OS X 10_15_7) AppleWebKit/605.1.15 (KHTML, like Gecko) Version/16.6 Safari/605.1.15" version="26.0.6">
  <diagram name="Page-1" id="zPuiwcmmPRltfQ4DKirR">
    <mxGraphModel dx="1194" dy="797" grid="1" gridSize="10" guides="1" tooltips="1" connect="1" arrows="1" fold="1" page="1" pageScale="1" pageWidth="850" pageHeight="1100" math="0" shadow="0">
      <root>
        <mxCell id="0" />
        <mxCell id="1" parent="0" />
        <mxCell id="enK0eJbyJ45rX67C4P84-1" value="" style="sketch=0;outlineConnect=0;fontColor=#232F3E;gradientColor=none;fillColor=#232F3D;strokeColor=none;dashed=0;verticalLabelPosition=bottom;verticalAlign=top;align=center;html=1;fontSize=12;fontStyle=0;aspect=fixed;pointerEvents=1;shape=mxgraph.aws4.users;" vertex="1" parent="1">
          <mxGeometry x="110" y="340" width="78" height="78" as="geometry" />
        </mxCell>
        <mxCell id="enK0eJbyJ45rX67C4P84-2" value="" style="sketch=0;pointerEvents=1;shadow=0;dashed=0;html=1;strokeColor=none;fillColor=#505050;labelPosition=center;verticalLabelPosition=bottom;verticalAlign=top;outlineConnect=0;align=center;shape=mxgraph.office.concepts.web_page;" vertex="1" parent="1">
          <mxGeometry x="320" y="352" width="50" height="54" as="geometry" />
        </mxCell>
        <mxCell id="enK0eJbyJ45rX67C4P84-3" value="AWS Cloud" style="points=[[0,0],[0.25,0],[0.5,0],[0.75,0],[1,0],[1,0.25],[1,0.5],[1,0.75],[1,1],[0.75,1],[0.5,1],[0.25,1],[0,1],[0,0.75],[0,0.5],[0,0.25]];outlineConnect=0;gradientColor=none;html=1;whiteSpace=wrap;fontSize=12;fontStyle=0;container=1;pointerEvents=0;collapsible=0;recursiveResize=0;shape=mxgraph.aws4.group;grIcon=mxgraph.aws4.group_aws_cloud_alt;strokeColor=#232F3E;fillColor=none;verticalAlign=top;align=left;spacingLeft=30;fontColor=#232F3E;dashed=0;" vertex="1" parent="1">
          <mxGeometry x="460" y="130" width="360" height="540" as="geometry" />
        </mxCell>
        <mxCell id="enK0eJbyJ45rX67C4P84-4" value="" style="sketch=0;points=[[0,0,0],[0.25,0,0],[0.5,0,0],[0.75,0,0],[1,0,0],[0,1,0],[0.25,1,0],[0.5,1,0],[0.75,1,0],[1,1,0],[0,0.25,0],[0,0.5,0],[0,0.75,0],[1,0.25,0],[1,0.5,0],[1,0.75,0]];outlineConnect=0;fontColor=#232F3E;fillColor=#7AA116;strokeColor=#ffffff;dashed=0;verticalLabelPosition=bottom;verticalAlign=top;align=center;html=1;fontSize=12;fontStyle=0;aspect=fixed;shape=mxgraph.aws4.resourceIcon;resIcon=mxgraph.aws4.s3;" vertex="1" parent="enK0eJbyJ45rX67C4P84-3">
          <mxGeometry x="50" y="211" width="78" height="78" as="geometry" />
        </mxCell>
        <mxCell id="enK0eJbyJ45rX67C4P84-5" value="Policy" style="sketch=0;outlineConnect=0;fontColor=#232F3E;gradientColor=none;strokeColor=#232F3E;fillColor=#ffffff;dashed=0;verticalLabelPosition=bottom;verticalAlign=top;align=center;html=1;fontSize=12;fontStyle=0;aspect=fixed;shape=mxgraph.aws4.resourceIcon;resIcon=mxgraph.aws4.policy;" vertex="1" parent="enK0eJbyJ45rX67C4P84-3">
          <mxGeometry x="230" y="211" width="100" height="100" as="geometry" />
        </mxCell>
        <mxCell id="enK0eJbyJ45rX67C4P84-8" value="" style="endArrow=classic;html=1;rounded=0;" edge="1" parent="enK0eJbyJ45rX67C4P84-3">
          <mxGeometry width="50" height="50" relative="1" as="geometry">
            <mxPoint x="216" y="249.93" as="sourcePoint" />
            <mxPoint x="150" y="249.49607329842934" as="targetPoint" />
            <Array as="points">
              <mxPoint x="196" y="249.93" />
            </Array>
          </mxGeometry>
        </mxCell>
        <mxCell id="enK0eJbyJ45rX67C4P84-6" value="" style="endArrow=classic;html=1;rounded=0;" edge="1" parent="1">
          <mxGeometry width="50" height="50" relative="1" as="geometry">
            <mxPoint x="390" y="390" as="sourcePoint" />
            <mxPoint x="510" y="390" as="targetPoint" />
          </mxGeometry>
        </mxCell>
        <mxCell id="enK0eJbyJ45rX67C4P84-7" value="" style="endArrow=classic;html=1;rounded=0;" edge="1" parent="1">
          <mxGeometry width="50" height="50" relative="1" as="geometry">
            <mxPoint x="210" y="390" as="sourcePoint" />
            <mxPoint x="270" y="390" as="targetPoint" />
          </mxGeometry>
        </mxCell>
        <mxCell id="enK0eJbyJ45rX67C4P84-9" value="" style="endArrow=classic;html=1;rounded=0;exitX=0;exitY=0.25;exitDx=0;exitDy=0;exitPerimeter=0;" edge="1" parent="1" source="enK0eJbyJ45rX67C4P84-4">
          <mxGeometry width="50" height="50" relative="1" as="geometry">
            <mxPoint x="430" y="360" as="sourcePoint" />
            <mxPoint x="370" y="360.06607329842933" as="targetPoint" />
          </mxGeometry>
        </mxCell>
        <mxCell id="enK0eJbyJ45rX67C4P84-10" value="" style="endArrow=classic;html=1;rounded=0;" edge="1" parent="1">
          <mxGeometry width="50" height="50" relative="1" as="geometry">
            <mxPoint x="270" y="360" as="sourcePoint" />
            <mxPoint x="200" y="360.06607329842933" as="targetPoint" />
          </mxGeometry>
        </mxCell>
        <mxCell id="enK0eJbyJ45rX67C4P84-12" value="Resident" style="text;html=1;align=center;verticalAlign=middle;resizable=0;points=[];autosize=1;strokeColor=none;fillColor=none;" vertex="1" parent="1">
          <mxGeometry x="105" y="428" width="70" height="30" as="geometry" />
        </mxCell>
        <mxCell id="enK0eJbyJ45rX67C4P84-13" value="Web Portal" style="text;html=1;align=center;verticalAlign=middle;resizable=0;points=[];autosize=1;strokeColor=none;fillColor=none;" vertex="1" parent="1">
          <mxGeometry x="300" y="418" width="80" height="30" as="geometry" />
        </mxCell>
        <mxCell id="enK0eJbyJ45rX67C4P84-14" value="Text" style="text;html=1;align=center;verticalAlign=middle;resizable=0;points=[];autosize=1;strokeColor=none;fillColor=none;" vertex="1" parent="1">
          <mxGeometry x="525" y="428" width="50" height="30" as="geometry" />
        </mxCell>
        <mxCell id="enK0eJbyJ45rX67C4P84-16" value="Bucket" style="text;html=1;align=center;verticalAlign=middle;resizable=0;points=[];autosize=1;strokeColor=none;fillColor=none;" vertex="1" parent="1">
          <mxGeometry x="690" y="458" width="60" height="30" as="geometry" />
        </mxCell>
      </root>
    </mxGraphModel>
  </diagram>
</mxfile>
